<svg xmlns="http://www.w3.org/2000/svg" viewBox="0 0 968.2 201.49"><g id="Layer_2" data-name="Layer 2"><g id="Layer_1-2" data-name="Layer 1"><g id="Layer_2-2" data-name="Layer 2"><g id="Layer_6" data-name="Layer 6"><g id="Layer_2-2-2" data-name="Layer 2-2"><g id="Layer_6-2" data-name="Layer 6-2"><path d="M307.09,124q1.53-5.73-1.69-8.84t-12.89-6.5a77.76,77.76,0,0,1-14.91-6.73q-14.37-9.06-10.25-24.44a32,32,0,0,1,8.32-14.26,42.49,42.49,0,0,1,15.56-9.79A56.19,56.19,0,0,1,311.1,49.9a37.49,37.49,0,0,1,17.79,3.83,20.26,20.26,0,0,1,9.94,10.83,25.17,25.17,0,0,1,.33,15.84H318.83q1.83-6.75-1.43-10.53c-2.16-2.49-5.83-3.75-11-3.75A22.78,22.78,0,0,0,294,69.27a14,14,0,0,0-6.35,8.29,7.27,7.27,0,0,0,2.67,8.06A40.27,40.27,0,0,0,303,91.71q15.93,5.22,21.8,13t2.75,19.22A33.06,33.06,0,0,1,312.44,144a51.69,51.69,0,0,1-27.91,7.18A43.09,43.09,0,0,1,265,147a22.27,22.27,0,0,1-11.39-11.42,25.77,25.77,0,0,1-.41-16.79h20.5q-4.32,16.3,15.17,16.31a23,23,0,0,0,12-2.9A13.43,13.43,0,0,0,307.09,124Z" fill="#fff"/><path d="M364.42,115.93,355,151.21H334.37L361.16,50.94H400.3a38.61,38.61,0,0,1,18.79,4.13,20.83,20.83,0,0,1,10.1,11.75,29.58,29.58,0,0,1,0,17.33,39.74,39.74,0,0,1-16.32,23.27,52.24,52.24,0,0,1-30.23,8.51Zm4.41-16.76h18.46a22.61,22.61,0,0,0,13.54-3.84,19.19,19.19,0,0,0,7.28-11c1.3-4.92.92-8.82-1.15-11.93s-5.67-4.59-10.74-4.7h-19Z" fill="#fff"/><path d="M477.44,87.67h16.43L503.81,51h20.63L497.33,151.21H460.11q-17.75,0-25.24-8t-3.57-22.42a40.32,40.32,0,0,1,9.08-17.1,43.91,43.91,0,0,1,16.38-10.88l-10.59-41,.26-1h22.16Zm11.92,16.76H472.71a21.37,21.37,0,0,0-13.22,3.92,19.47,19.47,0,0,0-7.22,10.9q-1.92,7.11,1,11.17c1.94,2.71,5.71,4.07,11.26,4.1H481.1Z" fill="#fff"/><path d="M563.14,96.09l33.07-45.2h22.6l-50,63.94L559,151.21H538l9.75-36.38L531.94,50.89h22.67Z" fill="#fff"/><path d="M681.43,151.21H660.74l-22.56-66-17.65,66H599.87L626.75,50.85h20.67L670,117l17.65-66.17h20.6Z" fill="#fff"/><path d="M793.48,67.53H762.72l-22.43,83.68H719.61L742,67.53H711.66l4.42-16.75h81.8Z" fill="#fff"/><path d="M873.23,102.79a75.48,75.48,0,0,1-12,25.52A57.56,57.56,0,0,1,842,145.23a49.54,49.54,0,0,1-23.58,6,33.42,33.42,0,0,1-20.28-6,27.18,27.18,0,0,1-10.4-16.81,54.25,54.25,0,0,1,1.41-25.16l1.3-4.87a75,75,0,0,1,12.11-25.63,58.16,58.16,0,0,1,19.31-17,49.73,49.73,0,0,1,23.57-5.91,33.22,33.22,0,0,1,20.3,5.91,27.21,27.21,0,0,1,10.29,17,55.75,55.75,0,0,1-1.6,25.57ZM853.86,98.3q4.14-15.49.76-23.55c-2.28-5.35-6.76-8.06-13.7-8.06a24,24,0,0,0-17.89,8q-7.68,8-11.88,23.34l-1.3,4.81q-4,15.16-.71,23.42t13.74,8.32a23.82,23.82,0,0,0,17.87-8q7.62-8,11.81-23.4Z" fill="#fff"/><path d="M921,87.33h16.54l9.91-36.9H968.2l-27,100.78H903.71q-17.85,0-25.4-8t-3.68-22.51a40.89,40.89,0,0,1,9.08-17.21,44.49,44.49,0,0,1,16.48-11L889.47,51.4l.24-1H912Zm12.82,17.84H917.38a21,21,0,0,0-12.89,3.9,19.06,19.06,0,0,0-7.06,10.72c-1.26,4.66-.91,8.3,1,11s5.63,4,11.09,4h16.32Z" fill="#fff"/></g></g><g id="Layer_2-3" data-name="Layer 2-3"><g id="Layer_6-3" data-name="Layer 6-3"><path d="M169,106.4h0A15.32,15.32,0,0,1,165.29,92l19.46-73.1A15,15,0,0,0,170.21,0h-46.1a15.1,15.1,0,0,0-14.63,11.48v.62a15,15,0,0,1-29.22,0v-.62A15,15,0,0,0,65.5,0H19.57A15,15,0,0,0,5,18.93L24.58,92a15.34,15.34,0,0,1-3.72,14.45h0A80.77,80.77,0,0,0,2.64,140.76q-7.77,29.12,7.31,45,13.62,14.31,44,15.73h81.8q30.41-1.41,44-15.73,15.18-16,7.36-45A80.91,80.91,0,0,0,169,106.4Zm-49,61.66H69.84q-16.76,0-22.65-8.2a18.47,18.47,0,0,1-3.1-7.09,33.48,33.48,0,0,1,1-15.34,38.35,38.35,0,0,1,25.8-27.75,48.9,48.9,0,0,1,15-2.17h18a48.85,48.85,0,0,1,15,2.17,38.36,38.36,0,0,1,25.89,27.75,31.28,31.28,0,0,1,.62,16.89,18.75,18.75,0,0,1-2.7,5.54Q136.76,168.07,120,168.06Z" fill="#fff"/></g></g></g></g></g></g></svg>