<svg xmlns="http://www.w3.org/2000/svg" viewBox="0 0 86.18 91.5"><g id="Layer_2" data-name="Layer 2"><g id="Layer_6" data-name="Layer 6"><g id="Layer_2-2" data-name="Layer 2"><g id="Layer_6-2" data-name="Layer 6"><path d="M76.74,48.31h0a6.94,6.94,0,0,1-1.69-6.52L83.89,8.6A6.84,6.84,0,0,0,79.07.23,7.14,7.14,0,0,0,77.28,0H56.35a6.86,6.86,0,0,0-6.64,5.21V5.5a6.83,6.83,0,0,1-13.27,0V5.21A6.83,6.83,0,0,0,29.74,0H8.89A6.82,6.82,0,0,0,2.05,6.81,7.26,7.26,0,0,0,2.28,8.6l8.88,33.15a7,7,0,0,1-1.69,6.56h0A36.56,36.56,0,0,0,1.2,63.91Q-2.32,77.13,4.52,84.36q6.18,6.49,20,7.14H61.64q13.81-.63,20-7.14Q88.52,77.12,85,63.91A36.65,36.65,0,0,0,76.74,48.31Zm-22.26,28H31.71q-7.6,0-10.28-3.73A8.46,8.46,0,0,1,20,69.36a15.19,15.19,0,0,1,.46-7A17.4,17.4,0,0,1,32.19,49.8a22.15,22.15,0,0,1,6.81-1h8.15a22,22,0,0,1,6.8,1A17.41,17.41,0,0,1,65.71,62.4,14.28,14.28,0,0,1,66,70.07a8.38,8.38,0,0,1-1.23,2.51Q62.09,76.32,54.48,76.31Z" fill="#f4f4f5"/></g></g></g></g></svg>